# xmcd CD database file
#
# Track frame offsets:
#	150
#	11734
#	35166
#	46173
#	60025
#	72324
#	85042
#	95983
#	107082
#	124427
#	135621
#	147939
#	161459
#	173321
#	186387
#	198021
#	208716
#	220382
#	232158
#	243245
#	254781
#	268044
#	280828
#	292232
#	302651
#	315299
#	326598
#
# Disc length: 4528 seconds
#
# Revision: 3
# Processed by: cddbd v1.5.2PL0 Copyright (c) Steve Scherf et al.
# Submitted via: CDex 1.40Beta9
#
DISCID=9811ae1b
DTITLE=Various Artist - The Complete Motown Singles Volume 1 [CD4]
DYEAR=2004
DGENRE=R&B/Soul
TTITLE0=The Satintones - Angel
TTITLE1=Marvin Gay - (I'm Afraid) The Masquerade Is Over
TTITLE2=Marvin Gay - Witchcraft
TTITLE3=Marvin Gaye - Let Your Conscience Be Your Guide
TTITLE4=Marvine Gaye - Never Let You Go (Sha Lu Bop)
TTITLE5=Mary Wells - I Don't Want To Take A Chance
TTITLE6=Mary Wells - I'm So Sorry
TTITLE7=Andre Williams - Rosa Lee (Stay Off The Bell)
TTITLE8=Andre Williams - Shoo-Doo
TTITLE9=Barrett Strong - Misery
TTITLE10=Barrett Strong - Two Wrongs Don't Make A Right
TTITLE11=The Miracles - Broken Hearted
TTITLE12=The Miracles - Mighty Good Lovin'
TTITLE13=Mable John - No Love [without strings]
TTITLE14=Mable John - Looking For A Man
TTITLE15=Gino Parks - Same Thing
TTITLE16=Gino Parks - That's No Lie
TTITLE17=The Satintones - I Know How It Feels
TTITLE18=The Satintones - My Kind Of Love
TTITLE19=Mable John - No Love [with strings]
TTITLE20=The Supremes - Buttered Popcorn [first version]
TTITLE21=The Supremes - Who's Lovin' You
TTITLE22=The Supremes - Buttered Popcorn [second version]
TTITLE23=The Temptations - Oh Mother Of Mine
TTITLE24=The Temptations - Romance Without Finance
TTITLE25=Golden Harmoneers - I Am Bound
TTITLE26=Golden Harmoneers - Precious Memories
EXTD=YEAR: 2004
EXTT0=
EXTT1=
EXTT2=
EXTT3=
EXTT4=
EXTT5=
EXTT6=
EXTT7=
EXTT8=
EXTT9=
EXTT10=
EXTT11=
EXTT12=
EXTT13=
EXTT14=
EXTT15=
EXTT16=
EXTT17=
EXTT18=
EXTT19=
EXTT20=
EXTT21=
EXTT22=
EXTT23=
EXTT24=
EXTT25=
EXTT26=
PLAYORDER=
